<svg width="32" height="32" viewBox="0 0 32 32" fill="none" xmlns="http://www.w3.org/2000/svg">
<path d="M16.7013 10.4383C16.7013 6.97934 13.8972 4.17531 10.4383 4.17531C6.97934 4.17531 4.17531 6.97934 4.17531 10.4383C4.17531 13.8972 6.97934 16.7013 10.4383 16.7013C13.8972 16.7013 16.7013 13.8972 16.7013 10.4383ZM20.8766 10.4383C20.8766 16.2032 16.2032 20.8766 10.4383 20.8766C4.67338 20.8766 0 16.2032 0 10.4383C0 4.67338 4.67338 0 10.4383 0C16.2032 0 20.8766 4.67338 20.8766 10.4383Z" fill="#1F6F43"/>
<path d="M22.5254 13.0069C22.9284 11.927 24.131 11.3783 25.2111 11.781C26.8553 12.3941 28.3185 13.4116 29.4653 14.7398C30.6121 16.0683 31.4052 17.665 31.7718 19.3813C32.1382 21.0976 32.0665 22.8787 31.5624 24.5597C31.0582 26.2409 30.1383 27.7687 28.8876 29.0001C27.6369 30.2314 26.0953 31.1276 24.4065 31.6056C22.7179 32.0834 20.9358 32.1279 19.2254 31.7347C17.5149 31.3414 15.9311 30.5223 14.6206 29.3548C13.3102 28.1873 12.3157 26.7083 11.7283 25.0544C11.3425 23.968 11.91 22.775 12.9964 22.3891C14.0828 22.0033 15.2758 22.5709 15.6617 23.6572C16.0141 24.6496 16.6111 25.5378 17.3974 26.2383C18.1836 26.9387 19.1343 27.4294 20.1605 27.6654C21.1868 27.9013 22.257 27.8747 23.2703 27.5879C24.2834 27.3011 25.2083 26.7636 25.9587 26.0249C26.709 25.2862 27.2599 24.3695 27.5625 23.3609C27.865 22.3524 27.9087 21.2837 27.6889 20.2539C27.469 19.2242 26.9932 18.2661 26.3052 17.469C25.6171 16.6719 24.7381 16.0605 23.7514 15.6926C22.6715 15.2896 22.1227 14.0871 22.5254 13.0069Z" fill="#1F6F43"/>
<path d="M9.04652 13.2218V9.04652C8.27786 9.04652 7.65474 8.4234 7.65474 7.65474C7.65474 6.88609 8.27786 6.26297 9.04652 6.26297H10.4383L10.581 6.26977C11.2826 6.34121 11.8301 6.93426 11.8301 7.65474V13.2218C11.8301 13.9905 11.2069 14.6136 10.4383 14.6136C9.66963 14.6136 9.04652 13.9905 9.04652 13.2218Z" fill="#1F6F43"/>
<path d="M21.5835 17.6311C22.1309 17.0915 23.0119 17.0974 23.5516 17.6447L24.5261 18.6328C25.063 19.1773 25.0599 20.0532 24.5193 20.594L20.5941 24.5193C20.0506 25.0625 19.1695 25.0625 18.626 24.5193C18.0826 23.9758 18.0827 23.0947 18.626 22.5512L21.5727 19.6032L21.57 19.5991C21.0303 19.0518 21.0363 18.1707 21.5835 17.6311Z" fill="#1F6F43"/>
</svg>
